<?xml version="1.0" encoding="utf-8"?>
<!-- Generator: Adobe Illustrator 15.0.0, SVG Export Plug-In . SVG Version: 6.00 Build 0)  -->
<!DOCTYPE svg PUBLIC "-//W3C//DTD SVG 1.1//EN" "http://www.w3.org/Graphics/SVG/1.1/DTD/svg11.dtd">
<svg version="1.1" id="Layer_1" xmlns="http://www.w3.org/2000/svg" xmlns:xlink="http://www.w3.org/1999/xlink" x="0px" y="0px"
	 width="595.279px" height="136.836px" viewBox="0 0 595.279 136.836" enable-background="new 0 0 595.279 136.836"
	 xml:space="preserve">
<g>
	<path fill="#FFFFFF" d="M102.288,9.599C92.004,3.87,80.697,1,68.359,1S44.712,3.87,34.43,9.599
		c-10.28,5.734-18.413,13.71-24.394,23.929c-5.983,10.217-8.973,21.745-8.973,34.58c0,12.836,2.989,24.393,8.973,34.678
		c5.98,10.279,14.113,18.287,24.394,24.021c10.282,5.729,21.591,8.598,33.929,8.598c12.337,0,23.615-2.866,33.833-8.598
		c10.219-5.731,18.32-13.74,24.302-24.021c3.033-5.215,5.294-10.76,6.789-16.629l-18.968-67.935
		C110.707,14.936,106.7,12.06,102.288,9.599z M93.5,95.584c-6.294,6.857-14.674,10.283-25.142,10.283
		c-10.595,0-19.037-3.426-25.331-10.283c-6.292-6.848-9.44-16.01-9.44-27.477c0-11.462,3.147-20.624,9.44-27.478
		c6.293-6.853,14.736-10.282,25.331-10.282c10.468,0,18.848,3.43,25.142,10.282c6.292,6.854,9.44,16.016,9.44,27.478
		C102.942,79.577,99.792,88.738,93.5,95.584z"/>
	<path fill="#FFFFFF" d="M545.903,102.502c-3.99,2.244-8.849,3.365-14.581,3.365c-10.593,0-19.039-3.426-25.329-10.283
		c-6.293-6.848-9.441-16.01-9.441-27.477c0-11.462,3.148-20.624,9.441-27.478c6.29-6.853,14.736-10.282,25.329-10.282
		c5.732,0,10.591,1.121,14.581,3.366c3.985,2.243,7.29,5.921,9.907,11.029h38.133c-4.486-13.707-12.399-24.425-23.737-32.151
		C558.863,4.862,545.903,1,531.322,1c-12.338,0-23.647,2.87-33.927,8.599c-10.285,5.734-18.417,13.71-24.396,23.929
		c-2.989,5.107-5.232,10.542-6.729,16.302l19.018,68.116c3.64,3.309,7.672,6.201,12.107,8.676
		c10.278,5.73,21.589,8.596,33.927,8.596c14.581,0,27.541-3.862,38.884-11.588c11.338-7.725,19.251-18.442,23.737-32.151H555.81
		C553.193,96.586,549.889,100.258,545.903,102.502z"/>
	<polygon fill="#FFFFFF" points="452.663,38.763 442.488,2.87 405.851,2.87 383.046,86.054 360.054,2.87 323.416,2.87 
		286.777,134.097 321.173,134.097 340.61,50.911 363.045,134.097 399.31,134.097 422.676,50.911 445.48,134.097 479.689,134.097 
		479.607,133.814 479.202,133.814 	"/>
	<polygon fill="#FFFFFF" points="479.202,133.814 479.607,133.814 452.663,38.763 	"/>
	<polygon fill="#FFFFFF" points="278.681,2.866 259.242,86.049 236.808,2.866 200.544,2.866 177.177,86.049 154.373,2.866 
		120.191,2.866 121.886,8.937 157.363,134.092 194.003,134.092 216.805,50.908 239.8,134.092 276.439,134.092 313.076,2.866 	"/>
	<polygon fill="#FFFFFF" points="120.167,2.866 121.886,8.937 120.191,2.866 	"/>
</g>
</svg>
